/* XPM */
static char * enemy_run8_xpm[] = {
"48 48 26 1",
" 	c None",
".	c #050403",
"+	c #352115",
"@	c #452A1B",
"#	c #724B2C",
"$	c #F6D896",
"%	c #E2B27E",
"&	c #FFFFFF",
"*	c #0A0C0A",
"=	c #181C19",
"-	c #C79865",
";	c #293F21",
">	c #F1641F",
",	c #B9451D",
"'	c #B47538",
")	c #477238",
"!	c #939446",
"~	c #C6B858",
"{	c #373334",
"]	c #925F2D",
"^	c #695B59",
"/	c #855F39",
"(	c #4C3D2E",
"_	c #674320",
":	c #595757",
"<	c #271F1B",
"                                                ",
"                                                ",
"                                                ",
"                                                ",
"                                                ",
"                                                ",
"                                                ",
"                                                ",
"                                                ",
"                                                ",
"                                                ",
"                                                ",
"                                                ",
"                                                ",
"                                                ",
"                                                ",
"                  ......                        ",
"                 .+@@###.                       ",
"                .+++@@##@.                      ",
"                .@@#$@@@@.                      ",
"                .@#$$%%%$.                      ",
"                .##$@@$@@.                      ",
"                .%#%&*$&*.                      ",
"                .%#$$=%$=.                      ",
"                .@@%$$%-$.                      ",
"                ..@#$###$.                      ",
"              ..;;..#$$$#.                      ",
"             .>.;;;;.@@@.                       ",
"            .,'#.;);;.@..                       ",
"            .>#.;!~))).~!.                      ",
"             .@.;;)~~~~);.         .            ",
"              .));;));)));.      {.].           ",
"             .))).;)););.;.    ^^ .].           ",
"             .~).=;)););.;!. ^^   .].           ",
"            .//~.=;));;;.!/^^     .].           ",
"            ./(..=;;));;./^(.    ._.            ",
"            .//..@@@####.^///...._].            ",
"            .%$$.=;;@:@@../$._]]_].             ",
"            .%$$.)):@;).  .._.....              ",
"             ... .#@);).  .]..                  ",
"                 .:)))!.  .].                   ",
"                 .@~~~(..._].                   ",
"                ...<((..___.                    ",
"                .(#.#@.....                     ",
"                .(#.@#.                         ",
"                ....((.                         ",
"                   .(((.                        ",
"                   .....                        "};
