/* XPM */
static char *fa4993da5f304e3c83a45d7fcc7b232cHHoNc5Vi66O58KzH[] = {
/* columns rows colors chars-per-pixel */
"48 48 26 1 ",
"  c None",
". c #050403",
"X c #0A0C0A",
"o c #181C19",
"O c #271F1B",
"+ c #352115",
"@ c #293F21",
"# c #373334",
"$ c #452A1B",
"% c #4C3D2E",
"& c #674320",
"* c #724B2C",
"= c #477238",
"- c #595757",
"; c #695B59",
": c #B9451D",
"> c #925F2D",
", c #855F39",
"< c #B47538",
"1 c #F1641F",
"2 c #939446",
"3 c #C6B858",
"4 c #C79865",
"5 c #E2B27E",
"6 c #F6D896",
"7 c white",
/* pixels */
"                                                ",
"                                                ",
"                                                ",
"                                                ",
"                                                ",
"                                                ",
"                                                ",
"                                                ",
"                                                ",
"                                                ",
"                                                ",
"                                                ",
"                                                ",
"                                                ",
"                                                ",
"                  ......                        ",
"                 .+$$***.                       ",
"                .+++$$**$.                      ",
"                .$$*6$$$$.                      ",
"                .$*665556.                      ",
"                .**6$$6$$.                      ",
"                .5*57X67X.                      ",
"                .5*66o56o.                      ",
"                .$$566546.                      ",
"                ..$*6***6.                      ",
"              ..@@..*666*.                      ",
"             .1.@@@@.$$$.                       ",
"            .:<*.@=@@.$..                       ",
"            .1*.@23===.32.                      ",
"             .$.@@=3333=@.                      ",
"              .==@@==@===.                      ",
"              .==.@==@=@..                      ",
"              .33.@==@=@..                      ",
"              .,,.@==@@@..                      ",
"              .,,%.@==@@.;;;;;;##..             ",
"              ..,,,.****..      .>.             ",
"              ...566.-$$...     .>.             ",
"               ..566.=@=.>..   .>.              ",
"              .==...==@=2.&>...>.               ",
"              .2==-===@3%...&>>.                ",
"              .%33$3333%%%. ...                 ",
"             .O%%.......**.                     ",
"            .*$*.      .*$.                     ",
"            .$*.       .**.                     ",
"            .%*.       .%%%.                    ",
"            .%%.       .....                    ",
"            ....                                ",
"                                                "
};
