/* XPM */
static char *a5c9fbc64bb54719b178d130a04800f1hbkZesdAn9qsgfDA[] = {
/* columns rows colors chars-per-pixel */
"48 48 25 1 ",
"  c None",
". c #050403",
"X c #0A0C0A",
"o c #181C19",
"O c #352115",
"+ c #293F21",
"@ c #373334",
"# c #452A1B",
"$ c #4C3D2E",
"% c #674320",
"& c #724B2C",
"* c #477238",
"= c #595757",
"- c #695B59",
"; c #B9451D",
": c #925F2D",
"> c #855F39",
", c #B47538",
"< c #F1641F",
"1 c #939446",
"2 c #C6B858",
"3 c #C79865",
"4 c #E2B27E",
"5 c #F6D896",
"6 c white",
/* pixels */
"                                                ",
"                                                ",
"                                                ",
"                                                ",
"                                                ",
"                                                ",
"                                                ",
"                                                ",
"                                                ",
"                                                ",
"                                                ",
"                                                ",
"                                                ",
"                                                ",
"                                                ",
"                                                ",
"                  ......                        ",
"                 .O##&&&.                       ",
"                .OOO##&&#.                      ",
"                .##&5####.                      ",
"                .#&554445.                      ",
"                .&&5##5##.                      ",
"                .4&46X56X.                      ",
"                .4&55o45o.                      ",
"                .##455435.                      ",
"                ..#&5&&&5.                      ",
"              ..++..&555&.                      ",
"             .<.++++.###.                       ",
"            .;,&.+*++.#..                       ",
"            .<&.+12***.21.                      ",
"             .#.++*2222*+.                      ",
"              .**++**+***+.                     ",
"              .**.+**+*+.+.                     ",
"              .22.+**+*+.1.                     ",
"              .>>.+**+++..                      ",
"              .>>$.+**++.------@@..             ",
"              ..>>>.&&&&..      .:.             ",
"              .%.455.=##...     .:.             ",
"               ..455.*+*.:..   .:.              ",
"               .*...***+*.%:...:.               ",
"               .1*=****+*1..%::.                ",
"            ....$2#2***+2$. ...                 ",
"            .$$#$$..2222$$$.                    ",
"            .$&&#.  .....&&.                    ",
"            .....       .&#.                    ",
"                        .&&.                    ",
"                        .$$$.                   ",
"                        .....                   "
};
