/* XPM */
static char *_b92e9b4da2546eee86aa659b1cec425gIr6DLIcNfcKFMca[] = {
/* columns rows colors chars-per-pixel */
"48 48 124 2 ",
"   c None",
".  c #2A2F1E",
"X  c #2E331F",
"o  c #30341F",
"O  c #2E3620",
"+  c #313620",
"@  c #393521",
"#  c #343A21",
"$  c #393C22",
"%  c #4B3723",
"&  c #4C3923",
"*  c #553623",
"=  c #563924",
"-  c #3F4826",
";  c #424C27",
":  c #454F28",
">  c #5A4926",
",  c #425026",
"<  c #465129",
"1  c #4B562B",
"2  c #4C582B",
"3  c #50582F",
"4  c #495533",
"5  c #525930",
"6  c #5D5C3B",
"7  c #57642F",
"8  c #59692F",
"9  c #5C6C31",
"0  c #637334",
"q  c #697130",
"w  c #6C7F37",
"e  c #5B5F4F",
"r  c #635D41",
"t  c #57604A",
"y  c #5C6050",
"u  c #6A734F",
"i  c #6A7250",
"p  c #717C5D",
"a  c #863B29",
"s  c #8B3E2A",
"d  c #A63C2D",
"f  c #6F8637",
"g  c #6E8139",
"h  c #708637",
"j  c #72853A",
"k  c #758A3B",
"l  c #798D3C",
"z  c #7D943E",
"x  c #7F9147",
"c  c #849D3F",
"v  c #88A13F",
"b  c #849C41",
"n  c #86975C",
"m  c #939F51",
"M  c #87A041",
"N  c #8AA443",
"B  c #8FAB45",
"V  c #8EA44B",
"C  c #92AC46",
"Z  c #93AC4A",
"A  c #96B347",
"S  c #96B348",
"D  c #9AB64A",
"F  c #9EBB4C",
"G  c #96A351",
"H  c #9BA655",
"J  c #A1BE4D",
"K  c #A2AC59",
"L  c #A3BE50",
"P  c #ACBC5B",
"I  c #98AB63",
"U  c #97A86D",
"Y  c #9EB165",
"T  c #B5AD6E",
"R  c #A0B466",
"E  c #A2B668",
"W  c #B0BC60",
"Q  c #BAAB76",
"!  c #A4B670",
"~  c #A7B972",
"^  c #A8BA73",
"/  c #A8BB74",
"(  c #ABBE75",
")  c #C0BA72",
"_  c #C6B17D",
"`  c #A3C14E",
"'  c #A4C24F",
"]  c #B7C363",
"[  c #B8C564",
"{  c #BBC865",
"}  c #C1C26F",
"|  c #C4C470",
" . c #888B80",
".. c #B4BCA6",
"X. c #CBAF87",
"o. c #CDB881",
"O. c #D8BF8A",
"+. c #E4BF98",
"@. c #BCC3A9",
"#. c #D9C18B",
"$. c #DFC88D",
"%. c #E0C98D",
"&. c #E7D092",
"*. c #EAD293",
"=. c #EFD398",
"-. c #F3D09F",
";. c #CCD6AE",
":. c #CFD9B2",
">. c #D1DBB3",
",. c #F6CEA3",
"<. c #F7D0A4",
"1. c #FFD7A9",
"2. c #FFD9AB",
"3. c #CBCCC9",
"4. c #D2D6CC",
"5. c #DADBD9",
"6. c #DDDDDB",
"7. c #E1E6D3",
"8. c #E3E8D2",
"9. c #E5EBD6",
"0. c #E7ECD7",
"q. c #E9EFD7",
"w. c #E8EED8",
"e. c #F6F6F7",
/* pixels */
"                                                                                                ",
"                                                                                                ",
"                                                                                                ",
"                                                                                                ",
"                                                                                                ",
"                                                                                                ",
"                                                                                                ",
"                                                                                                ",
"                        # + + O @ X o o o X X X O O + X X X X X O X O +                         ",
"                        + # ; : : < < < : < 1 < 1 1 1 < 1 1 1 1 1 1 1 <                         ",
"                    O O O ; 9 x j j k j j k c c b b b b b b b b b b b k 1 X                     ",
"                    = % @ < j N N b N N b N A J J J J J L D D D D J ' M 1 O                     ",
"                O = s a % < j N b c N N c v N C L J J L Z B B N C Z J b 1 O                     ",
"                O = d d = , f Z E I b b I R V B S D b b b V N B N N M g : +                     ",
"                O = d d = , f E >...i i @.:.R C D b 9 8 c J D D F b 9 ; # @                     ",
"                O & a a % ; f ( w.3.e e 3.9.~ v D N 9 9 b J J J ` N 9 ; # +                     ",
"                o $ & & o ; f ( w.3.e e 3.0.^ v D D M M D J F J J D N g < O                     ",
"                # o X # & > q U 7.6. . .5.9.~ v A J ` J F F F F F F ` b 1 O                     ",
"                    X & a s > p 4.e.6.6.e.8.^ v A F J J J F F F F J ` b 1 +                     ",
"                    X = d d * t ..0.w.0.8.;.R v A J F J J F J J L ` ` b 1 +                     ",
"                    O = d d * 4 n ^ ( ^ ~ Y V V D L F J J L F L J ` ' b 1 O                     ",
"                    O & a a % , j b v c c c c N Z D F S M b b b b b b g : X                     ",
"                    # $ & & @ < k b M b c b b N M Z F M 9 < 1 1 1 2 1 : $ #                     ",
"                    # X O O o ; q l b b b N B N N C F N 9 ; + O X O X X + #                     ",
"                            O # ; 7 l M M N C S D D F A N g ; X                                 ",
"                            # O X : j V G K W ] ] ] ] [ { G 3 X                                 ",
"                                X : j G T o.%.*.&.&.&.&.*.Q 6 X                                 ",
"                                X ; g H X.&.<.1.2.2.1.2.2.X.r X                                 ",
"                        + X X X X ; h H _ +.,.2.1.1.1.2.2.X.r X                                 ",
"                        + - < 2 1 8 l H _ +.,.2.1.1.1.2.2.X.6 X                                 ",
"                        X : j b b b b H _ +.<.1.1.1.2.2.2.X.r X                                 ",
"                        + < j B D D N G T o.$.*.<.,.<.<.=.Q 7 X                                 ",
"                        # # < 9 b V v V G K P | O.+.+.O.} m 1 X                                 ",
"                        # X O - 9 l c M v C A P ) o.o.) P c 1 O                                 ",
"                            O # ; 7 l N A D F L P P P P L b 1 o                                 ",
"                            + + X : j C F D M b b M C F J b 1 X                                 ",
"                                X : h C F B 0 < < 9 z Z J b 2 +                                 ",
"                                o : j N b j < . X , k N b j < +                                 ",
"                                o < k x 9 <     X : k z 9 <                                     ",
"                                o ; 0 0 ; O     O ; 0 0 : .                                     ",
"                                + # ; :         # # ; :                                         ",
"                                # + + X         # + O O                                         ",
"                                                                                                ",
"                                                                                                ",
"                                                                                                ",
"                                                                                                ",
"                                                                                                ",
"                                                                                                "
};
