/* XPM */
static char * dinograss48_xpm[] = {
"48 48 43 1",
" 	c #81BA45",
".	c #7FBA44",
"+	c #81BB43",
"@	c #82BB48",
"#	c #82BB46",
"$	c #80B944",
"%	c #4F8400",
"&	c #4E8301",
"*	c #C1F37A",
"=	c #A1E05B",
"-	c #84BB46",
";	c #A1E05D",
">	c #9FDE5B",
",	c #C2F37D",
"'	c #508300",
")	c #9EE05C",
"!	c #A0DF5D",
"~	c #333821",
"{	c #323821",
"]	c #323820",
"^	c #A0DF5A",
"/	c #88A043",
"(	c #89A043",
"_	c #9FBC4C",
":	c #9FBC4D",
"<	c #9EBC4D",
"[	c #C43F30",
"}	c #88A143",
"|	c #FFFFFE",
"1	c #9FBD4D",
"2	c #C43F31",
"3	c #323921",
"4	c #88A042",
"5	c #D8B78F",
"6	c #FFD7A8",
"7	c #D8B68F",
"8	c #FDFE86",
"9	c #FBFF86",
"0	c #F9C325",
"a	c #FAC223",
"b	c #9D443E",
"c	c #9D443C",
"d	c #FAC426",
"                 .               +              ",
"  @  @           ##          #        #         ",
"                     $                          ",
"   % @ &          **= #  $   -  %               ",
"    % %           .*;; $>*,      &  '           ",
"    ' %         . %%); ))* @     & '            ",
"       @           %'  ;!'%   #    %            ",
"#  $ $                  '%  #   @               ",
"            ~~{{{{~{{{]]{{{{{{{{{{{{            ",
"          # ~~{{{{~{{{{]{{{{{{{{{{{{      ^**   ",
"          {{~~//((////__::::::::::__{{   ^^*    ",
"          {{{{////////__::::::::<<__{{   >!''   ",
"        {{[[{{(///((////::::(/((//__{{    %%    ",
"        {{[[{{(}//((////::::(/((((__{{     @    ",
"        {{[[{~}}||{{||/(::{{__<<11]]~~          ",
"        {{[[~~}}||{{||/(::{{_:::11]{~~          ",
"        {{{{{{/(||{{||//<<11::::::::~~          ",
"        {{{{{{/(||{{||//<<1:::::::::~~ !**-   . ",
"          ]]2233||||||//<<<:::::11::~~^^*   #.  ",
"          ]{2233||||||4/<<<:::::11::~~!!'& -    ",
"          {{22{{////////::::::::::::{{ ''       ",
"          {{22{{////////::::::::::::{{ +  $ $   ",
"          {{{{{{////////((::{{~~33{{{{  @     # ",
"          {{{{{{//////////::]{~~33{{{{       #  ",
"              33{{((/(::<<::::~~              $ ",
"              33{{((/(:<:::<::~~     -          ",
"                {{//5566666666~~        $  **=  ",
"                {{//5566666666~~@   $%      *>) ",
"            {{{{]]//7766666666{~.#  %. +   %';= ",
"            {{{{]]//7766666666~~    %       ''  ",
"            ~~:::<//7766666666{{##      +       ",
"            ~~:::<//7766666666{{ #    #@       .",
"    #       {{{{//////::5555::{{    @   @    #  ",
" .  #       {{{{//////::5555::{{       8       .",
".             {{{{//11<:::11::~~ $  . 908  @    ",
"              {{{{//11<:::11::~~    @ %9%       ",
"  .   ##        ]]//::{{{{}}<<{{#.%   +%       #",
"       %        ]]//::{{{{}}::{{##%     #  #   @",
"      &         ]]/({{  ~~(/{{  $#          +   ",
"  &   %$        ]{/({{  ~~(/{{  #$   #          ",
" $ &     +   #. {{{~   #{{33  #.            9   ",
"   %   $     .  {{~~   #{{33  #        @  $9a9  ",
"   -         @  %     #.#+  b#     9    #  %9'  ",
"               . %  %# .   cdc #  908       %   ",
"   #         &  #% %      $'b% #  %9% .   '    #",
"              &  # %      ##%#     %. @  '      ",
"             #&       #   +#  #     @    %      ",
"            #    .                     .     .  "};
