/* XPM */
static char *_a4fcfc387604a37b9c690a58a6a15ce9G9xe5GNiu3FbZto[] = {
/* columns rows colors chars-per-pixel */
"24 24 22 1 ",
"  c None",
". c #323820",
"X c #323821",
"o c #333821",
"O c #323921",
"+ c #C43F30",
"@ c #C43F31",
"# c #88A042",
"$ c #88A043",
"% c #89A043",
"& c #88A143",
"* c #9FBC4C",
"= c #9EBC4D",
"- c #9FBC4D",
"; c #9FBD4D",
": c #D8B68F",
"> c #D8B78F",
", c #FFD6A8",
"< c #FFD7A8",
"1 c #FFFFFE",
"2 c #FFFEFF",
"3 c white",
/* pixels */
"                        ",
"                        ",
"                        ",
"                        ",
"      ooXXXXXXXXOO      ",
"     Xo%$$$*----;;X     ",
"    X+X&$$$$--$$$;X     ",
"    X+X&1X1$-X--;Xo     ",
"    XXX$1X1&=-----o     ",
"     X@X111$=---;-o     ",
"     X@X&$$$------X     ",
"     XXX$$$$$-XXOXX     ",
"       XX$$----X        ",
"        X$:<<<<o        ",
"      XXX$:<<<<X        ",
"      o--$:<<<<X        ",
"      XX$$$->>-X        ",
"       XX$-----o        ",
"        O$-XX&-X        ",
"        X$X o$X         ",
"        Xo  XX          ",
"                        ",
"                        ",
"                        "
};
