/* XPM */
static char * strawberrygrass_48_xpm[] = {
"48 48 62 1",
" 	c #81BA45",
".	c #7FBA44",
"+	c #81BB43",
"@	c #82BB48",
"#	c #82BB46",
"$	c #80B944",
"%	c #4F8400",
"&	c #4E8301",
"*	c #C1F37A",
"=	c #A1E05B",
"-	c #84BB46",
";	c #A1E05D",
">	c #9FDE5B",
",	c #C2F37D",
"'	c #508300",
")	c #9EE05C",
"!	c #A0DF5D",
"~	c #CD1910",
"{	c #F54942",
"]	c #550336",
"^	c #A0DF5A",
"/	c #6D1E3B",
"(	c #FDCDDE",
"_	c #FDF0F4",
":	c #F96C66",
"<	c #FFFFFF",
"[	c #F1342B",
"}	c #FFA076",
"|	c #840000",
"1	c #6D1E3C",
"2	c #EDE3E7",
"3	c #FFF8FA",
"4	c #FDD9E5",
"5	c #FFFAFC",
"6	c #F16962",
"7	c #FFF7FA",
"8	c #A23C61",
"9	c #A33C61",
"0	c #A23B61",
"a	c #FDECF1",
"b	c #FDEBF1",
"c	c #F7E9EB",
"d	c #F9F1F4",
"e	c #A33D61",
"f	c #FBE6EA",
"g	c #BE3835",
"h	c #D36867",
"i	c #F99BB4",
"j	c #FFACC3",
"k	c #F57E7B",
"l	c #EC839F",
"m	c #E87371",
"n	c #D75553",
"o	c #EB899F",
"p	c #F38EA2",
"q	c #FDFE86",
"r	c #FBFF86",
"s	c #F9C325",
"t	c #9D443E",
"u	c #FAC426",
"v	c #9D443C",
"w	c #FAC223",
"                 .               +              ",
"  @  @           ##          #        #         ",
"                     $                          ",
"   % @ &          **= #  $   -  %               ",
"    % %           .*;; $>*,      &  '           ",
"    ' %         . %%); ))* @     & '            ",
"       @           %'  ;!'%   #    %            ",
"#  $ $                  '%  #   @               ",
"                                                ",
"          #  . #     ~~{{{~]              ^**   ",
"                    ]~~{{{~]]//          ^^*    ",
"            ///((_]]~{{:{{{~~]<<(        >!''   ",
"          %/((<<<<]][{{{}}{{{|<<<((       %%    ",
"           /((<<<<]][{{{}}{{{|<<<((        @    ",
"          12<<3444||[[[[{{{[[|<<<<</            ",
"          1_<<435<__|~~[[[[66|774((8            ",
"          /_<<455<__|~~[[[[66|774((9            ",
"          /(__<__444_((||||||4447<<0 . !**-   . ",
"           /__a44<<<<<<<33444<<<<<<9  ^^*   #.  ",
"           /__a44<<<<<<<33444<<<<<<9! !!'& -    ",
"           1((4bb___<<<_44c<<<<<d__9;  ''       ",
"           e(((((___f44<<<<<<344a<<0 # +  $ $   ",
"           e(((((___f44<<<<<<344_559    @     # ",
"           0(((ggh((4aa___<53455<<<e         #  ",
"            88_iijkkh((___f445<<<__e          $ ",
"             8_iijkkh((___f443<<<__8 -          ",
"             e_iijlljmmh((4aa______/    $  **=  ",
"              (ggmiijllimmh((____((/$%      *>) ",
"              (ggmiijllimmh((____((/%. +   %';= ",
"              (iijnnmjjjiijmmmnnnmm/%       ''  ",
"              /((niijnnmiijiiijjill/    +       ",
"               ((niijnnmiijiiijjill/  #@       .",
"    #         <///nnmlljnnmjjljjonn/@   @    #  ",
" .  #          <<<///nnmjjjnnmmmnpp/   q       .",
".                #<</nnmjjjnnmmmnpp/. rsq  @    ",
"                $++ <///nnmjjijjlnn/@ %r%       ",
"  .   ##        -  tu<<<///nnnmmn//<  +%       #",
"       %        $  'v% .<</nnnmmn/<     #  #   @",
"      &         .   %     <//////<          +   ",
"  &   %$          $        <<<<<<$   #          ",
" $ &     +   #.    $   ##.    #.            r   ",
"   %   $     .         #.     #        @  $rwr  ",
"   -         @  %     #.#+  t#     r    #  %r'  ",
"               . %  %# .   vuv #  rsq       %   ",
"   #         &  #% %      $'t% #  %r% .   '    #",
"              &  # %      ##%#     %. @  '      ",
"             #&       #   +#  #     @    %      ",
"            #    .                     .     .  "};
