/* XPM */
static char *_e96eba47a6a4ebaa1af132416c22bc4VQ7dbRf4bydapui3[] = {
/* columns rows colors chars-per-pixel */
"48 48 250 2 ",
"   c #163F44",
".  c #164C51",
"X  c #115157",
"o  c #2A5154",
"O  c #0D5D63",
"+  c #175C63",
"@  c #235E65",
"#  c #0A626C",
"$  c #0B676C",
"%  c #166269",
"&  c #0C6B75",
"*  c #096B76",
"=  c #156A75",
"-  c #09717B",
";  c #13737C",
":  c #1B737C",
">  c #27737B",
",  c #2E6C72",
"<  c #43777E",
"1  c #0D7B89",
"2  c #0C7884",
"3  c #127B86",
"4  c #137D8B",
"5  c #197986",
"6  c #1B788B",
"7  c #267C86",
"8  c #2F7C88",
"9  c #0D818E",
"0  c #1C828D",
"q  c #15828D",
"w  c #0D8998",
"e  c #128393",
"r  c #1C8593",
"t  c #148C9B",
"y  c #1B8C9A",
"u  c #178797",
"i  c #1C919E",
"p  c #2C828A",
"a  c #24828B",
"s  c #36858D",
"d  c #228592",
"f  c #248A94",
"g  c #2B8B94",
"h  c #238C9B",
"j  c #2B8A97",
"k  c #338B93",
"l  c #358B96",
"z  c #23929C",
"x  c #2B929D",
"c  c #2F9095",
"v  c #33929D",
"b  c #3B929B",
"n  c #37959B",
"m  c #158EA3",
"M  c #1A8EA0",
"N  c #0E98A7",
"B  c #1592A4",
"V  c #1B94A5",
"C  c #1497AD",
"Z  c #1C9AAB",
"A  c #1798AC",
"S  c #169CB2",
"D  c #2393A3",
"F  c #2B94A2",
"G  c #2B9AA5",
"H  c #249AAB",
"J  c #2B9DAB",
"K  c #2596A8",
"L  c #3395A2",
"P  c #349AA4",
"I  c #3C9BA4",
"U  c #339DAB",
"Y  c #3A9DAA",
"T  c #3B94A3",
"R  c #289EB1",
"E  c #399EB1",
"W  c #2C8EA0",
"Q  c #1DA2B5",
"!  c #1CA3BA",
"~  c #16A5B9",
"^  c #0EA4B7",
"/  c #34A0AC",
"(  c #39A2AB",
")  c #24A3B4",
"_  c #2BA3B4",
"`  c #23A4BA",
"'  c #2CAABD",
"]  c #29A8BC",
"[  c #33A3B3",
"{  c #3CA4B1",
"}  c #3DABB6",
"|  c #34ABBC",
" . c #3BACBC",
".. c #33A6B7",
"X. c #38B1BE",
"o. c #27A1AD",
"O. c #44848A",
"+. c #448B92",
"@. c #468891",
"#. c #48959C",
"$. c #579499",
"%. c #429CA5",
"&. c #429DAB",
"*. c #4A99A3",
"=. c #5A9BA2",
"-. c #43A1AB",
";. c #4AA5AD",
":. c #55A3A9",
">. c #45ABB6",
",. c #4DABB4",
"<. c #44ADBB",
"1. c #48A6B4",
"2. c #55ADB9",
"3. c #58ABB4",
"4. c #43B2BD",
"5. c #4DB4BD",
"6. c #53B4BC",
"7. c #5BB3BB",
"8. c #50B8BF",
"9. c #61ABB5",
"0. c #62B3BD",
"q. c #62A3AC",
"w. c #609BA3",
"e. c #16ACC3",
"r. c #1CABC2",
"t. c #1CABC6",
"y. c #1BB1CA",
"u. c #13B4CB",
"i. c #1CBAD4",
"p. c #22ACC3",
"a. c #2CADC2",
"s. c #26ADC8",
"d. c #34ADC1",
"f. c #3AADC0",
"g. c #2CB2C4",
"h. c #23B3CB",
"j. c #2AB3CB",
"k. c #27B7C9",
"l. c #33B2C4",
"z. c #3BB3C3",
"x. c #33BACD",
"c. c #3BBACC",
"v. c #35B5CB",
"b. c #2CBDD4",
"n. c #27BBD7",
"m. c #3BBDD4",
"M. c #33BCD6",
"N. c #45B5C4",
"B. c #4BB4C2",
"V. c #42B5C9",
"C. c #44BBCC",
"Z. c #4CBBCA",
"A. c #46B9C6",
"S. c #53BBC5",
"D. c #5AB9C4",
"F. c #54BBCC",
"G. c #5CBDCB",
"H. c #54B6C3",
"J. c #45BDD1",
"K. c #4CBED2",
"L. c #4AB4C6",
"P. c #62BAC7",
"I. c #27C3DB",
"U. c #3CC2D4",
"Y. c #3CC4DB",
"T. c #35C5DB",
"R. c #3EC0CC",
"E. c #2AC9E5",
"W. c #3BCCE3",
"Q. c #35C9E5",
"!. c #2AD3ED",
"~. c #38D3EB",
"^. c #28D7F7",
"/. c #3AD8F5",
"(. c #29E5FE",
"). c #35E4FD",
"_. c #39E7FD",
"`. c #3BF3FF",
"'. c #1FC4DD",
"]. c #49C1CD",
"[. c #5CC2CB",
"{. c #55C4CF",
"}. c #43C3D4",
"|. c #4CC4D3",
" X c #43C5DA",
".X c #43CADC",
"XX c #4BCBDC",
"oX c #4AC7D8",
"OX c #53C3D3",
"+X c #5CC4D2",
"@X c #53CBDB",
"#X c #5BCCDB",
"$X c #57C9D7",
"%X c #5CD1DD",
"&X c #61C1CD",
"*X c #63CBDB",
"=X c #63C7D4",
"-X c #61D1DE",
";X c #42CCE4",
":X c #4ACCE3",
">X c #48CCE7",
",X c #54CEE2",
"<X c #5BCDE1",
"1X c #4CD2E4",
"2X c #44D4EB",
"3X c #4BD4EC",
"4X c #47D7EB",
"5X c #54D2E4",
"6X c #5CD3E4",
"7X c #52D4EA",
"8X c #54DAEC",
"9X c #5DDBEC",
"0X c #5DD5E9",
"qX c #46DBF5",
"wX c #53DCF2",
"eX c #5BDDF2",
"rX c #55D9F6",
"tX c #69CEE1",
"yX c #64D4E3",
"uX c #64DBEB",
"iX c #66D7E8",
"pX c #62DDF2",
"aX c #6BDDF4",
"sX c #71D1E6",
"dX c #49E5FA",
"fX c #54E2F5",
"gX c #5CE3F4",
"hX c #54E5FB",
"jX c #53ECFD",
"kX c #5CECFC",
"lX c #5AE5FA",
"zX c #4AF4FF",
"xX c #5BF3FF",
"cX c #5CFCFF",
"vX c #55F4FE",
"bX c #5EE0EE",
"nX c #63E2F4",
"mX c #63E5FA",
"MX c #63EBFC",
"NX c #6BEBFD",
"BX c #68E5F5",
"VX c #63F4FE",
"CX c #6BF4FE",
"ZX c #63FCFF",
"AX c #6AFDFF",
"SX c #73FDFF",
"DX c #7AFFFF",
"FX c #71F3FF",
"GX c #6BE4F3",
"HX c #82FFFF",
/* pixels */
"{.T.2XhX` y u aXVXc.qXuXVXVXAXT.`.zXe..XxXZXl.f 5.w a ( V q ;.i wXC.~.2XCXo.I z K NX1 3X>XQ.D <X",
"n.aXN.>Xa.a.y }.e.MXy.g.AXAXgX~.ZXSXuX4XY.} >.l.! Z.a H *XZX..$XMXiXVX6X$X-XiXs.Z <.CXd.tXw z.V.",
"Q.>XAXAXB m.a.p.u.OX!.(.~.AXVXbXxX8X0X%X1X5.A.qXh.d ] - X.Y.n |.&XuXuX_ U u w GXH pXqX| W A K Z.",
"! 2XqXY.S kX,X@Xe.lXQ.zXzXh.ZXZX3XY.jX.X#Xq B y.{ B.5XJ g f 0X[.4./ j <.#.Z.|.7.S eXuXV.K r.3 pX",
"v.aXv.s.W.rX;Xv.cXr.ZX^.(.^ ~.y z.3XMXU S r C ; > 3 0 r z 4XGX: <.$ #XNX*XH B mXaXmXMXS E d OXf.",
";XaXMXa.3Xp.n.! ZXjXY._.I.^ oXy 5XBX#X4 Z.z.: L # ( t 9 X.w G H v.#X*X<X].6.nX2.V.HXx.F 3.=X3.rX",
">XE.|.u T.).^.jXAXzXe.T.fX,Xc.Q.gXC.I 4 6 ; = ,.- _ a o.k.- z a Y = #XK.r Y F.8 M qX2Xl M 6  .pX",
"Q GXNXY.CXxXcXZXDX_.i.ZX1X1.c.W.u u x r L  .m.g ( f 0 @X#.k r #.1.P.` 7X;X$XM aXE D 2. .0XK x.b.",
"C.qX^.n.E.jX(.AX`.SX~ oXz |.n.|.W =.& 7 &.! t L %X=XI n k n iX7 % [.<X;XNX] *.+X0XE J.NXFXVXkX2X",
"t DXI.xX'.zX(.dX!.4XV y {.G fXd #.O.> 7 M.y.2.T A.S.8.;.c ;.n > #.8 P.} %.8 0.F SXe v.yXyXOXSXU ",
"y.cXT.i.zXcX/.! j.S c.).V.NXCXL 1.h F.fXDXAXS.NXk.&XgX5.( ~.4.c l F.l j Y J -.S J.s.qXT.].OXrXV.",
"SXZXi.!.(./.dX;XS t.y./.K.cXwX6 W M tXcXZX#XCX_.XX].5.,.AX,.p . X J.K.NX7Xu B.S qX/.~.oX%XaX.XMX",
"`.AXE.x.;XzXQ.v.E.v.| d.vXcXS T K J C /._.g.1X-X+.8.,.9X$XP ;.-.<.5X6XB VXI M.vXdX/.).eXNXa NXVX",
"_.SXdX XQ.8XZ Q.N.J / z.n.dXm 4 R a.Q.B Z G 4.; n [.=XOX{.P.> l f.| B.oXCX~ b.!.dXeXCXlX] r uXgX",
"DXI.Y.CXc.VXU ] | Y._ 4XT.j.m s.4 t M G I ,.a , P.#XX.8.4.I x s <.#X<.l.SX).^.AXR <XBXSXm.a.VXAX",
"gXQ oXrXtX<XMXqX] W.~.W.j.H R w x %.v I + $.O.[.: 0 1X$X4 6XG.*.H.& r 6XQ NX! <XlXJ.Z eXkXzXAXDX",
"z.}.:XE c.a.CXd.z.z.|.U.g.Z ! h &.7.D., $.b c } / ( .Xc H : 3.s =.X K nXVXVXa.2.L NXkXdXAXb.CXT.",
"A.CXf.5XeXa.:XD d.XXoX X>.K ] G.,.#.%.*.{.c ( wX4XA.z _ o.y :.. =.L L.pXZX2XtX= 6 W.nXhXdXDXZ.B ",
"rX[ 5X7 t CXgXxXJ.{ @XgXP.+.+ tXaX0.3.d.%.c ;.1X8.gXn k.!.8XS.; j u Q.M MXFX=  .m.uX5 M.M G.VXlX",
"b J #X# gXZXZXa g 5.D.p 2.$.P.,X+X%.#.mXjX( / 1XkXXXW.^ y A g : 3 a.Z iX2X<X .Z.~.VX|.zX` wXV.pX",
"*XW.z.% 4.AXDX9 # G.8 = O F.MXiXT l 8.pX@X].bX5.VX>.1X_ t ) -.4 9.,.0 P.` eX{.@X5XxXrX:XVXNXV.iX",
"S.7XO {.`.k.) f # 3 2 &.OX*XNXNXS.l +X|.*.X.].I 7 U a.l :.7 w.w., V >.7.J.@X0XvXDXdXJ.tX|.5.K.E ",
"C._ P g.S.; & l R K.6 W 9XkX9X8XyX,.yXkX[.].$ +.& 5 b = @ o o % b ~.*X$Xh.~ ~.(.8X` = B.L E J.f.",
"$XN.].AXA 4 - NXv.FXFX0XfXa.y @X*X5XMX/ %X6.+.3.;.O.k = @ o . *X-XuX-.BXi.E.`.!.r 4 d T l :Xl.f.",
"/.8X}. .9 q i 9XeXM.CXCXAXgXlXAXiX7XK.> O.+ $., @ s J <.D J.t VX7 | $Xk.fXqX^.}.; Z.4 K C.fXyXjX",
"C Z G z a p -.2 ..S ] R ! cXVX- H 1 0.;.H.F p S.6.gXXXhXm.E.6X2XX.R.1XjX2X}.c.L 5 r ] v.L w U / ",
"N l.o.F ,.,.3.- H E / { E.dXfX2 q 2.O 2.7.#.d.|.CX6X] eXgX7XAXe.V N x.x 4.=Xe | 2 7 D W K d P [ ",
"i Z.bXnXD.:.+.[.a.w A.t I.y.; K yX, +.F.:XZX>.OX|.S.m.U.b ! !.1 t Q } { 4.p [.~.h > a Y h J g.B ",
"fXOX7.GXk : &.mXpXV.) ! e.m.d 8 8 *.D.( & k | XX5.kX4XR.S.MX@X/ {.8.:.-.% z.6Xx.J 4 Y E ~ R T.` ",
"6X[.3.yX( h VXyX{.4 x t.T.z s Z.8 9.5 >.6Xd.* 0 -.]..X4X}.gXl.f 4.<.+.0.#.%XmXQ.f.M.F.B.t.d.;Xf.",
"0X8.yXCX,XY S.OX-.= h m g.J > *.n 8.x jXC.CX' 4._ ].8X4X$XX.w p v &X:.x..X/ c.t.dX1 9.F.Z.@Xg.7X",
"OX-XAX9XCXOXY.d.m.3 ! dX! V.AXz.XXi 0 0 VX^ %XD X.2X/ H oX%X; %XD [.5.fXcX8XdXJ.1 2.3.;XqXa.VXwX",
"#XCXxXDXDXAXD T.ZXb.XXzXvXp.Q N.t y.t kX4X~.z.F c.].#X$Xt %X] 4Xf g R.N  XT.y.d.Y sXD <.B.z.V.C.",
"kX_.fXZ.AX@X ._._.~.E.I.1X4XhX[ y >.X.U.;XCXH j.V c.$XS.q 9 N 4XX.I f G G VXC A.;.H tX3.+X7X5X@X",
"wXMX9Xm 3XcXVXDXdXE.~./.;XV MX1Xy #XdXI.p.[.T.fX1 N k.1 o.' y.f o.].n ].>.y 9X[.Z oXtXaX{.9XDXyX",
"xXnXCXh 4XAXZXAXe.e.oXkXY.2 t S q VXu y.dXyXmXC.y N k.y z ) Z U.o.{.8.& V x k V.lX6XiX*XDXkXyXMX",
"VXZ.6XgXgXAXDXcXS E.pXHXp.K.vXt.t 4.& ~ k.vXh.D.p t.! ` Q ) ' z c - > v >Xd y m NX6XsXiX2XN.gXxX",
"AXlXZXjXxXcXcX~.e.E.E = Q...q S.xX%Xf N $ w = o 7 r i i x.x.R.z - $ f V u d M m 6 V.7.1XT.bXfXnX",
"cXZXhXVXNXjXDXNXw ` #.1.V M.r.q ZXY.6.X.n A.% O...B * z a a ; - I.y x l.3 3 _ 2 K 4 =X Xb.{.GXCX",
"6Xx.,.&XyXY.h y L >.%.V 1X~.Z U.'.jX' c G ZX, < G v./ ) w i t +Xn c ( b # D Q.m M ^.vXSXcXFX4.8X",
"= ] 4 m pX@Xm  .M.*Xd W 7.E d ;XP n l ^.y.a + p u ~.' VX`.B : #.> q.7 a -.3 * 9 C S a.$XK._ D r ",
"6 M.M.y.tXmXVXCX6XD.P.0.*XP.H.#Xy k } ) D ( # n - 2 ) ] m.w [.3.+.I q t Y *.= G.1 l.Q.s.J.<._ 4 ",
"+ L R E.V mX~.2 & @.P.P.iXaXsX+.y bXq $Xx }._ : t w B 3 Z.j k %.| _.M.%X>.&.v 0XeXp.v & * K lXyX",
"H.S ~ CXa.K ` m : $.1.m...v.oX@XAX+X&X].[.7.) | H 9 0Xp.4.[.d ;Xr 2XgXP.tXyXI._.n.2XV.h.r.qX..+ ",
"K qX2X#X{ C n.w ,.7.o.V Q.| Z.MXMX=X[.,.[.X.9 c t ( A.k.K g k G 3 ;.3.;.*XlXAXjXn.rXZ i.qXt.7 + ",
"rXCX8XX d t n.:X=X&X-XCXiXXXV cXuX7.3.&X8XXX3.x z [.K X.3 ,.:.iX| CX&.} z. XkXSXp.rXm.C d.%.  . ",
"w >XAXM.Q.a.i.F.[ _ bX*XyXMXb.w t bX|.VXVXnX6.O % | 8X; -.:.g  .k.].8.x. X!.E.qXt.jXW.M 7 < O.T ",
"bX! ] Q.S C ! tX X! BX#XbXMXNXb.~.E.y.cX1XAXG a oXi X.7 [ 0 k U.DX{ | 8XR.W.AX}.n.qXp.6 6 d G.&X"
};
