/* XPM */
static char *_0e23118906a419a800de7b9420ee9397EEgDoKin3eRatAj[] = {
/* columns rows colors chars-per-pixel */
"48 48 22 1 ",
"  c None",
". c #323820",
"X c #323821",
"o c #333821",
"O c #323921",
"+ c #C43F30",
"@ c #C43F31",
"# c #88A042",
"$ c #88A043",
"% c #89A043",
"& c #88A143",
"* c #9FBC4C",
"= c #9EBC4D",
"- c #9FBC4D",
"; c #9FBD4D",
": c #D8B68F",
"> c #D8B78F",
", c #FFD6A8",
"< c #FFD7A8",
"1 c #FFFFFE",
"2 c #FFFEFF",
"3 c white",
/* pixels */
"                                                ",
"                                                ",
"                                                ",
"                                                ",
"                                                ",
"                                                ",
"                                                ",
"                                                ",
"            ooXXXXoXXX..XXXXXXXXXXXX            ",
"            ooXXXXoXXXX.XXXXXXXXXXXX            ",
"          XXoo$$%%$$$$**----------**XX          ",
"          XXXX$$$$$$$$**--------==**XX          ",
"        XX++XX%$$$%%$$$$----%$%%$$**XX          ",
"        XX++XX%&$$%%$$$$----%$%%%%**XX          ",
"        XX++Xo&&11XX11$%--XX**==;;..oo          ",
"        XX++oo&&11XX11$%--XX*---;;.Xoo          ",
"        XXXXXX$%11XX11$$==;;--------oo          ",
"        XXXXXX$%11XX11$$==;---------oo          ",
"          ..@@OO111111$$===-----;;--oo          ",
"          .X@@OO111111#$===-----;;--oo          ",
"          XX@@XX$$$$$$$$------------XX          ",
"          XX@@XX$$$$$$$$------------XX          ",
"          XXXXXX$$$$$$$$%%--XXooOOXXXX          ",
"          XXXXXX$$$$$$$$$$--.XooOOXXXX          ",
"              OOXX%%$%--==----oo                ",
"              OOXX%%$%-=---=--oo                ",
"                XX$$>><<<<<<<<oo                ",
"                XX$$>><<<<<<<<oo                ",
"            XXXX..$$::<<<<<<<<Xo                ",
"            XXXX..$$::<<<<<<<<oo                ",
"            oo---=$$::<<<<<<<<XX                ",
"            oo---=$$::<<<<<<<<XX                ",
"            XXXX$$$$$$-->>>>--XX                ",
"            XXXX$$$$$$-->>>>--XX                ",
"              XXXX$$;;=---;;--oo                ",
"              XXXX$$;;=---;;--oo                ",
"                ..$$--XXXX&&==XX                ",
"                ..$$--XXXX&&--XX                ",
"                ..$%XX  oo%$XX                  ",
"                .X$%XX  oo%$XX                  ",
"                XXXo    XXOO                    ",
"                XXoo    XXOO                    ",
"                                                ",
"                                                ",
"                                                ",
"                                                ",
"                                                ",
"                                                "
};
