/* XPM */
static char *_115410403f84d90c72763fa0e9db7e5EmX0dXzvI38GxEZi[] = {
/* columns rows colors chars-per-pixel */
"48 48 31 1 ",
"  c black",
". c #141413",
"X c #181817",
"o c #1E1E17",
"O c #1C1C1B",
"+ c #28261F",
"@ c #28271F",
"# c #323820",
"$ c #323821",
"% c #333821",
"& c #323921",
"* c #353929",
"= c #373C2C",
"- c #434436",
"; c #4F4C3F",
": c #C43F30",
"> c #C43F31",
", c #807B6A",
"< c #88A042",
"1 c #88A043",
"2 c #89A043",
"3 c #88A143",
"4 c #9FBC4C",
"5 c #9EBC4D",
"6 c #9FBC4D",
"7 c #9FBD4D",
"8 c #979578",
"9 c #D8B68F",
"0 c #D8B78F",
"q c #FFD7A8",
"w c #FFFFFE",
/* pixels */
"                                                ",
"================================================",
"================================================",
"================================================",
"================================================",
"================================================",
";;;;;;;;;;;;;;;;;;;;;;;;;;;;;;;;;;;;;;;;;;;;;;;;",
";;;;;;;;;;;;;;;;;;;;;;;;;;;;;;;;;;;;;;;;;;;;;;;;",
";;;;;;;;;;;;%%$$$$$$$$##$$$$$$$$$$$$;;;;;;;;;;;;",
";;;;;;;;;;;;%$$$$$$$$$$#$$$$$$$$$#$$;;;;;;;;;;;;",
";;;;;;;;;;$$$$221111<<44666666664447$$;;;;;;;;;;",
";;;;;;;;;;$$$$2211111166666666664447$$;;;;;;;;;;",
";;;;;;;;$$::$$3211111111666632223377$$;;;;;;;;;;",
";;;;;;;;$$::$$331122<<11666632223377$$;;;;;;;;;;",
";;;;;;;;$$::$%33ww%%ww2266$$666667$$%%;;;;;;;;;;",
";;;;;;;;$$::$$33ww$%ww2266$$466666#$%%;;;;;;;;;;",
";;;;;;;;$$$$$$11ww$$ww11666666666666$$;;;;;;;;;;",
";;;;;;;;$$$$$$11ww$$ww11666666666666%%;;;;;;;;;;",
";;;;;;;;;;$$::$$wwwwww11655566666666%%;;;;;;;;;;",
";;;;;;;;;;$$::$$wwwwww11555566666666%%;;;;;;;;;;",
";;;;;;;;;;$$::$$11111111666666666666$$;;;;;;;;;;",
";;;;;;;;;;$$>>$$11111111666666666566$$;;;;;;;;;;",
";;;;;;;;;;$$$$$$111111111166$$$$$$$$$$;;;;;;;;;;",
";;;;;;;;;;$$$$$$111111113166$$$$$$$$$$;;;;;;;;;;",
";;;;;;;;;;;;;;$$$$112266555666%%;;;;,888888,-;;;",
";;;;;;;;;;;;;;$$$$112266655566%%;;;;8=..=8.8=;;;",
";;;;;;;;;;;;;;;;$$<<99qqqqqqqq%%;;;;88888888=;;;",
";;;;;;;;;;;;;;;;$$<<99qqqqqqqq%%;;;;8=8===88=;;;",
";;;;;;;;;;;;$$$$$$1299qqqqqqqq$$;;;;8..=8.88=;;;",
";;;;;;;;;;;;$$$$$$2200qqqqqqqq%$;;;;88888888=;;;",
";;;;;;;;;;;;$$6666<<00qqqqqqqq$$;;;;,888888,=;;;",
";;;;;;;;;;;;$$66661100qqqqqqqq$$;;;;;;;;;;;;;;;;",
";;;;;;;;;;;;$$$$11111166900066$$;;;;;;;;;;;;;;;;",
";;;;;;;;;;;;$$$$11111166990066$$;;;;;;;;;;;;;;;;",
";;;;;;;;;;;;;;$$$$116666665566%%;;;;;;;;;;;;;;;;",
";;;;;;;;;;;;;;$$$$1<6666666666%$;;;;;;;;;;;;;;;;",
";;;;;;;;;;;;;;;;##2<66$$$$3366$$;;;;;;;;;;;;;;;;",
";;;;;;;;;;;;;;;;##2266$$$$3366$$;;;;;;;;;;;;;;;;",
";;;;;;;;;;;;;;;;$#23$$;;$$33$$;;;;;;;;;;;;;;;;;;",
";;;;;;;;;;;;;;;;$%23$$;;$$33$$;;;;;;;;;;;;;;;;;;",
"                $$$%    $$$$                    ",
"O OO OO OO OO OO$$$%OO O$$$$ OO OO OO OO OO OO O",
"=***=*=*==@*@@=@@@@@@=*@=$**=*=*=***=***=****$@=",
"oooooXooOooooooooXXooooooOooo@@ooooooooooXoooo+O",
"Xo*.oooo=.oooo*.oXo@=.oooo=.@o@o*.ooXo*.oooo*.oo",
"oX .oooX .oooX .XoXX .oXoX .o@oX .oXoX XoooX .oX",
"ooooooooooooooooXooo@@ooooooooooooXooooooooooooX",
".XXXX.XX.....X.X .    . ......XX...X.XXXX.XX...."
};
