/* XPM */
static char * dino_door48_xpm[] = {
"48 48 107 2",
"  	c #61797E",
". 	c #5C7276",
"+ 	c #526264",
"@ 	c #596A6E",
"# 	c #637476",
"$ 	c #5F757A",
"% 	c #5A6E72",
"& 	c #515F62",
"* 	c #515C5D",
"= 	c #4A4F52",
"- 	c #4D4944",
"; 	c #4D504F",
"> 	c #4C433D",
", 	c #6E8284",
"' 	c #4F6064",
") 	c #444B4D",
"! 	c #3D3A3C",
"~ 	c #343434",
"{ 	c #3B3639",
"] 	c #413D40",
"^ 	c #413B3E",
"/ 	c #3B3234",
"( 	c #3E3E41",
"_ 	c #392C2E",
": 	c #3F484B",
"< 	c #363837",
"[ 	c #3C4345",
"} 	c #1B1917",
"| 	c #191515",
"1 	c #231C1A",
"2 	c #1E1A1A",
"3 	c #12110F",
"4 	c #141211",
"5 	c #453A35",
"6 	c #221A17",
"7 	c #3E4648",
"8 	c #2A2F30",
"9 	c #292E2E",
"0 	c #2B3131",
"a 	c #25292A",
"b 	c #363D3D",
"c 	c #332529",
"d 	c #637D82",
"e 	c #252728",
"f 	c #374042",
"g 	c #362C30",
"h 	c #414448",
"i 	c #54666A",
"j 	c #5B6465",
"k 	c #4D5A5D",
"l 	c #5B6769",
"m 	c #707F81",
"n 	c #56696C",
"o 	c #6F7E81",
"p 	c #728385",
"q 	c #495254",
"r 	c #433533",
"s 	c #424344",
"t 	c #62777C",
"u 	c #475153",
"v 	c #4C4641",
"w 	c #464E50",
"x 	c #352A2D",
"y 	c #392E31",
"z 	c #2C2223",
"A 	c #312326",
"B 	c #28201F",
"C 	c #27211E",
"D 	c #4A5558",
"E 	c #291F1F",
"F 	c #0D0C0A",
"G 	c #100F0D",
"H 	c #0A0907",
"I 	c #212323",
"J 	c #566B70",
"K 	c #333821",
"L 	c #323821",
"M 	c #323820",
"N 	c #788A8C",
"O 	c #494B4D",
"P 	c #515553",
"Q 	c #88A043",
"R 	c #89A043",
"S 	c #9FBC4C",
"T 	c #9FBC4D",
"U 	c #9EBC4D",
"V 	c #1F2322",
"W 	c #C43F30",
"X 	c #4E5E61",
"Y 	c #88A143",
"Z 	c #68787B",
"` 	c #60686B",
" .	c #FFFFFE",
"..	c #9FBD4D",
"+.	c #363F41",
"@.	c #C43F31",
"#.	c #323921",
"$.	c #88A042",
"%.	c #49474B",
"&.	c #242827",
"*.	c #47362E",
"=.	c #4A3C34",
"-.	c #514B45",
";.	c #D8B78F",
">.	c #FFD7A8",
",.	c #D8B68F",
"'.	c #707D7E",
"  . + . @ # $ . . % @ + $ & + + & & * = - * ; > , . + . @ . . . % % % ' . & & & & & * = - * ; - ",
"% ) ! ~ { { { ~ ~ ] ^ / ! { ^ ~ ~ ^ ^ { ( ! ) _ $ : ! ~ ! ! { ~ ~ ^ ^ / ! ! ^ < { ! ] { [ ! ) / ",
"# < } | | } } | } } } 1 } } 2 3 } 1 } | 4 2 ) 5 $ < 2 | 4 } 1 | } 1 } 6 } } } 3 } 1 } | 4 2 7 > ",
"$ ! 8 8 9 8 8 9 0 0 0 a < 8 8 8 0 9 0 8 9 b + c d ! 0 9 9 8 9 9 0 9 0 e < 8 0 8 8 9 0 8 8 f ' g ",
". h i j @   k l % @ l l m n o % n i p n % + q r $ s i j @ t k n % % l @ m n m % n n p n % & q 5 ",
". ) > * : u % v w ) u ) w w ) ) h w ) u [ ) u x   ) > * ) u @ v w ) u ) ) w w ) 7 w ) u [ w q y ",
". ) g 1 c z 1 ~ A 1 B z c a z 1 6 z c C z z D x   ) _ 1 c c C 0 A 1 E z c a A | 6 z c E z z D / ",
"# { 4 4 4 3 3 3 F F 4 4 F 4 F F 3 4 4 G H I % x d { | 3 3 3 3 3 F F 3 4 F | F F G 4 4 3 H I @ / ",
". ( 0 $ @ % J . k n ' @ K K L L L L K L L L M M L L L L L L L L L L L L o w k N J % & j t i q / ",
"+ ) u u ) O ) : b ) k ) K K L L L L K L L L L M L L L L L L L L L L L L w P s ) w ) q k ) ) w / ",
"n ) ] O b ^ < ) ! O L L K K Q Q R R Q Q Q Q S S T T T T T T T T T T S S L L 7 ] ] ] ^ ^ ] s ) y ",
". ] E 4 2 4 } 2 } } L L L L Q Q Q Q Q Q Q Q S S T T T T T T T T U U S S L L V 2 | } 2 6 4 a k y ",
"+ ! e 8 9 0 8 9 L L W W L L R Q Q Q R R Q Q Q Q T T T T R Q R R Q Q S S L L 8 a 8 8 ~ a 0 [ n y ",
"X [ & % @ % @ + L L W W L L R Y Q Q R R Q Q Q Q T T T T R Q R R R R S S L L i % Z n o ` % k ) / ",
"& [ h w ) u [ w L L W W L K Y Y  . .L L  . .Q R T T L L S S U U ....M M K K +.) w w w n - ) u / ",
"& ) _ A c 1 A A L L W W K K Y Y  . .L L  . .Q R T T L L S T T T ....M L K K 1 ~ A A A 6 ) x D y ",
"+ { | 3 F F H F L L L L L L Q R  . .L L  . .Q Q U U ....T T T T T T T T K K 3 4 3 3 3 F F V J y ",
"+ s i + # i k , L L L L L L Q R  . .L L  . .Q Q U U ..T T T T T T T T T K K . O , J % . k n D / ",
"v w [ k 7 v & ) ) s M M @.@.#.#. . . . . . .Q Q U U U T T T T T ....T T K K > + ) O b 7 k v 7 y ",
"q w u / ] D ^ ^ ) ! M L @.@.#.#. . . . . . .$.Q U U U T T T T T ....T T K K %.^ h r < ! g ) 7 / ",
"* ] | 1 1 2 } | 2 2 L L @.@.L L Q Q Q Q Q Q Q Q T T T T T T T T T T T T L L 2 1 2 } 1 | | V k / ",
"v ) 0 9 &.&.0 0 0 0 L L @.@.L L Q Q Q Q Q Q Q Q T T T T T T T T T T T T L L 8 8 8 8 8 9 I +.@ y ",
"u D % n i + p % i % L L L L L L Q Q Q Q Q Q Q Q R R T T L L K K #.#.L L L L % % % % n n % i w g ",
"*.=._ r _ _ c c A x L L L L L L Q Q Q Q Q Q Q Q Q Q T T M L K K #.#.L L L L c x _ x A g g _ c 1 ",
"d   @ $ .   $   t $ . i $ i #.#.L L R R Q R T T U U T T T T K K   # . i $ i i i + n * D - & P -.",
". %.{ ~ ! ! ! ~ ~ ] ^ / ! { #.#.L L R R Q R T U T T T U T T K K ~ ^ ( / ! { ! < ~ ^ ^ ! ! ! w ~ ",
". < } | | } } } } } } 1 } } 2 4 L L Q Q ;.;.>.>.>.>.>.>.>.>.K K } } } 1 2 } } 3 } 1 | | 4 C : > ",
". ^ 0 9 9 9 9 9 0 0 0 a < 8 0 8 L L Q Q ;.;.>.>.>.>.>.>.>.>.K K 0 0 0 a < 8 0 8 8 8 0 0 9 f + g ",
". s i j @ t k i % @ l l L L L L M M Q Q ,.,.>.>.>.>.>.>.>.>.L K @ % l l '.n , @ n n '.@ % X D 5 ",
". ) > * ) u % v u ) u ) L L L L M M Q Q ,.,.>.>.>.>.>.>.>.>.K K u ) u ) ) u ) ) [ u ) u [ w q y ",
". ) g 1 c A 1 ~ z 1 C z K K T T T U Q Q ,.,.>.>.>.>.>.>.>.>.L L A 6 B z x 9 z 6 6 z c B z z D / ",
"# { 4 4 3 3 3 3 G F 3 4 K K T T T U Q Q ,.,.>.>.>.>.>.>.>.>.L L 3 H 3 3 F 4 3 F 3 3 4 3 H V % g ",
". [ ~ % % J % . k n & J L L L L Q Q Q Q Q Q T T ;.;.;.;.T T L L k n ' n m D k N n % X n t i q y ",
"+ ) u u ) ) ) : b ) k ) L L L L Q Q Q Q Q Q T T ;.;.;.;.T T L L b ) k ) w P s ) w ) = k ) O = / ",
"n ) ] ) b ^ { ) ! O ^ ! ! s L L L L Q Q ....U T T T ....T T K K ! O ! ! ^ s [ ] ] ] ( ] ] s w g ",
". ] B 4 2 4 } 2 } } } } 4 | L L L L Q Q ....U T T T ....T T K K } } 2 } 4 | V } | } 2 } 4 a k y ",
"& ] a 8 9 8 8 9 9 0 a 9 0 8 8 a M M Q Q T T L L L L Y Y U U L L 8 8 a 0 0 8 8 a 0 a ~ 9 9 +.n y ",
"k [ & % @ % @ & @ @ j o @ % i # M M Q Q T T L L L L Y Y T T L L @ @ j o n % i # Z n o ` % & O y ",
"& [ ) w w w [ w q [ * w w : b 7 M M Q R L L w _ K K R Q L L [ O w h * w w ) b : w w w i v ) = / ",
"& ) _ z A 1 c A 1 c A A z E E ~ M L Q R L L D _ K K R Q L L c A 1 c A c z E 1 ~ A A A 6 w x k y ",
"+ ! 4 4 F F H F 4 4 4 F F 3 4 4 L L L K F V @ _ L L #.#.F F H F 4 4 4 F F G 4 4 3 4 3 G F V % g ",
"+ s i + # + & , J % X p J % % w L L K K k n D _ L L #.#.# i X o J J X p % % % w , J % % k n D y ",
"v w 7 k 7 v & ) ) s P w ) ) > ' ) %.b 7 k v h _ v w 7 k 7 v & ) ) s P w w ) > & ) O b [ k v : g ",
"= w = / ] D ^ ] ) ! ) ] ^ / O ( h r < ! 8 ) 7 y q w = / ( D ^ ] ) ! w ^ ( / O ] h r { ! g ) 7 / ",
"* ] | } } 2 } | 2 2 2 } } } } 1 2 2 1 | 4 C & _ & ] | 1 } 1 } } 2 } 2 2 } } } 2 2 } 1 | | I k / ",
"v ) 0 8 a e 0 0 0 8 8 9 0 0 8 8 8 9 0 9 &.+.@ _ -.) 0 9 a a 0 8 0 0 8 0 8 8 8 8 0 8 0 9 I f @ y ",
"q D % @ i + p % n % % % . n % % % . n n % n u c D D % n + + p % i . % % % % % % % % i i % i w _ ",
"=.v y 5 / / g g _ y y y y g g y g _ x y y g x 1 > v y 5 / / _ y _ y g g y g g y y y _ y y ~ x C "};
