/* XPM */
static char * enemy_run1_xpm[] = {
"48 48 50 1",
" 	c #81BA45",
".	c #7FBA44",
"+	c #81BB43",
"@	c #82BB48",
"#	c #82BB46",
"$	c #80B944",
"%	c #4F8400",
"&	c #4E8301",
"*	c #C1F37A",
"=	c #A1E05B",
"-	c #84BB46",
";	c #A1E05D",
">	c #9FDE5B",
",	c #C2F37D",
"'	c #508300",
")	c #9EE05C",
"!	c #A0DF5D",
"~	c #A0DF5A",
"{	c #050403",
"]	c #352115",
"^	c #452A1B",
"/	c #724B2C",
"(	c #F6D896",
"_	c #E2B27E",
":	c #FFFFFF",
"<	c #0A0C0A",
"[	c #181C19",
"}	c #C79865",
"|	c #293F21",
"1	c #F1641F",
"2	c #B9451D",
"3	c #B47538",
"4	c #477238",
"5	c #939446",
"6	c #C6B858",
"7	c #FDFE86",
"8	c #FBFF86",
"9	c #F9C325",
"0	c #855F39",
"a	c #4C3D2E",
"b	c #695B59",
"c	c #373334",
"d	c #925F2D",
"e	c #595757",
"f	c #674320",
"g	c #FAC223",
"h	c #271F1B",
"i	c #9D443E",
"j	c #9D443C",
"k	c #FAC426",
"                 .               +              ",
"  @  @           ##          #        #         ",
"                     $                          ",
"   % @ &          **= #  $   -  %               ",
"    % %           .*;; $>*,      &  '           ",
"    ' %         . %%); ))* @     & '            ",
"       @           %'  ;!'%   #    %            ",
"#  $ $                  '%  #   @               ",
"                                                ",
"          #  . #                          ~**   ",
"                                         ~~*    ",
"                                         >!''   ",
"          %                               %%    ",
"           %+                              @    ",
"           '  #                                 ",
"          #                                     ",
"                  #.           $                ",
"                  {{{{{{ # ~**       . !**-   . ",
"                 {]^^///{ >~*    **;  ~~*   #.  ",
"                {]]]^^//^{;;%%    *>! !!'& -    ",
"                {^^/(^^^^{ %%    %%;;  ''       ",
"                {^/((___({ @      %% # +  $ $   ",
"                {//(^^(^^{       +      @     # ",
"                {_/_:<(:<{                   #  ",
"                {_/(([_([{                    $ ",
"                {^^_((_}({           -          ",
"                {{^/(///({              $  **=  ",
"              {{||{{/(((/{-     @   $%      *>) ",
"             {1{||||{^^^{'.# $  .#  %. +   %';= ",
"            {23/{|4||{^{{           %       ''  ",
"            {1/{|56444{65{    +-##      +       ",
"             {^{||466664|{       #    #@       .",
"    #         {44||44|444|{#        @   @    #  ",
" .  #         {44{|44|4|{|{ +  +       7       .",
".             {64{|44|4|{5{ &$#  $  . 897  @    ",
"             {006{|44|||{00{ %$     @ %8%       ",
"  .   ##     {0a{[||44||{bbbbbbbbcc{{ +%       #",
"       %     {00{^^^////{00{   $##{d{   #  #   @",
"      &      {_(({||^e^^{{{{{   $#{d{       +   ",
"  &   %$     {_(({4e^4|4{fdd{{  #{d{ #          ",
" $ &     +   #{{{5/^4|45{{{{fd{{{d{         8   ",
"   %   $     .  {ae6666a{   {{fdd{     @  $8g8  ",
"   -         @ {ha^{{{aaa{  i#{{{  8    #  %8'  ",
"               {/^{{a///a{ jkj #  897       %   ",
"   #         & {^/{{a/^/a{$'i% #  %8% .   '    #",
"              &{a/{{{{{{{ ##%#     %. @  '      ",
"             #&{aa{   #   +#  #     @    %      ",
"            #  {{{{                    .     .  "};
