/* XPM */
static char * enemy_run8_xpm[] = {
"48 48 50 1",
" 	c #81BA45",
".	c #7FBA44",
"+	c #81BB43",
"@	c #82BB48",
"#	c #82BB46",
"$	c #80B944",
"%	c #4F8400",
"&	c #4E8301",
"*	c #C1F37A",
"=	c #A1E05B",
"-	c #84BB46",
";	c #A1E05D",
">	c #9FDE5B",
",	c #C2F37D",
"'	c #508300",
")	c #9EE05C",
"!	c #A0DF5D",
"~	c #A0DF5A",
"{	c #050403",
"]	c #352115",
"^	c #452A1B",
"/	c #724B2C",
"(	c #F6D896",
"_	c #E2B27E",
":	c #FFFFFF",
"<	c #0A0C0A",
"[	c #181C19",
"}	c #C79865",
"|	c #293F21",
"1	c #F1641F",
"2	c #B9451D",
"3	c #B47538",
"4	c #477238",
"5	c #939446",
"6	c #C6B858",
"7	c #373334",
"8	c #925F2D",
"9	c #695B59",
"0	c #FDFE86",
"a	c #855F39",
"b	c #FBFF86",
"c	c #F9C325",
"d	c #4C3D2E",
"e	c #674320",
"f	c #595757",
"g	c #FAC223",
"h	c #271F1B",
"i	c #9D443E",
"j	c #9D443C",
"k	c #FAC426",
"                 .               +              ",
"  @  @           ##          #        #         ",
"                     $                          ",
"   % @ &          **= #  $   -  %               ",
"    % %           .*;; $>*,      &  '           ",
"    ' %         . %%); ))* @     & '            ",
"       @           %'  ;!'%   #    %            ",
"#  $ $                  '%  #   @               ",
"                                                ",
"          #  . #                          ~**   ",
"                                         ~~*    ",
"                                         >!''   ",
"          %                               %%    ",
"           %+                              @    ",
"           '  #                                 ",
"          #                                     ",
"                  {{{{{{       $                ",
"                 {]^^///{# ~**       . !**-   . ",
"                {]]]^^//^{>~*    **;  ~~*   #.  ",
"                {^^/(^^^^{;;%%    *>! !!'& -    ",
"                {^/((___({ %%    %%;;  ''       ",
"                {//(^^(^^{ @      %% # +  $ $   ",
"                {_/_:<(:<{       +      @     # ",
"                {_/(([_([{                   #  ",
"                {^^_((_}({                    $ ",
"                {{^/(///({           -          ",
"              {{||{{/(((/{              $  **=  ",
"             {1{||||{^^^{ -     @   $%      *>) ",
"            {23/{|4||{^{{'.# $  .#  %. +   %';= ",
"            {1/{|56444{65{          %       ''  ",
"             {^{||466664|{    +-## {    +       ",
"              {44||44|444|{      7{8{ #@       .",
"    #        {444{|44|4|{|{#   99 {8{   @    #  ",
" .  #        {64{[|44|4|{|5{+99+  {8{  0       .",
".           {aa6{[|44|||{5a99$#  ${8{ bc0  @    ",
"            {ad{{[||44||{a9d{%$  {e{@ %b%       ",
"  .   ##    {aa{{^^^////{9aaa{{{{e8{  +%       #",
"       %    {_(({[||^f^^{{a({e88e8{     #  #   @",
"      &     {_(({44f^|4{  {{e{{{{{          +   ",
"  &   %$     {{{ {/^4|4{  {8{{  #$   #          ",
" $ &     +   #.  {f4445{#.{8{ #.            b   ",
"   %   $     .   {^666d{{{e8{ #        @  $bgb  ",
"   -         @  {{{hdd{{eee{i#     b    #  %b'  ",
"               .{d/{/^{{{{{jkj #  bc0       %   ",
"   #         &  {d/{^/{   $'i% #  %b% .   '    #",
"              & {{{{dd{   ##%#     %. @  '      ",
"             #&    {ddd{  +#  #     @    %      ",
"            #    . {{{{{               .     .  "};
