/* XPM */
static char * enemy_run3_xpm[] = {
"48 48 48 1",
" 	c #81BA45",
".	c #7FBA44",
"+	c #81BB43",
"@	c #82BB48",
"#	c #82BB46",
"$	c #80B944",
"%	c #4F8400",
"&	c #4E8301",
"*	c #C1F37A",
"=	c #A1E05B",
"-	c #84BB46",
";	c #A1E05D",
">	c #9FDE5B",
",	c #C2F37D",
"'	c #508300",
")	c #9EE05C",
"!	c #A0DF5D",
"~	c #A0DF5A",
"{	c #050403",
"]	c #352115",
"^	c #452A1B",
"/	c #724B2C",
"(	c #F6D896",
"_	c #E2B27E",
":	c #FFFFFF",
"<	c #0A0C0A",
"[	c #181C19",
"}	c #C79865",
"|	c #293F21",
"1	c #F1641F",
"2	c #B9451D",
"3	c #B47538",
"4	c #477238",
"5	c #939446",
"6	c #C6B858",
"7	c #855F39",
"8	c #373334",
"9	c #4C3D2E",
"0	c #695B59",
"a	c #FDFE86",
"b	c #674320",
"c	c #925F2D",
"d	c #FBFF86",
"e	c #F9C325",
"f	c #595757",
"g	c #FAC223",
"h	c #9D443E",
"i	c #9D443C",
"                 .               +              ",
"  @  @           ##          #        #         ",
"                     $                          ",
"   % @ &          **= #  $   -  %               ",
"    % %           .*;; $>*,      &  '           ",
"    ' %         . %%); ))* @     & '            ",
"       @           %'  ;!'%   #    %            ",
"#  $ $                  '%  #   @               ",
"                                                ",
"          #  . #                          ~**   ",
"                                         ~~*    ",
"                                         >!''   ",
"          %                               %%    ",
"           %+                              @    ",
"           '  #   {{{{{{                        ",
"          #      {]^^///{                       ",
"                {]]]^^//^{     $                ",
"                {^^/(^^^^{ ~**       . !**-   . ",
"                {^/((___({>~*    **;  ~~*   #.  ",
"                {//(^^(^^{;;%%    *>! !!'& -    ",
"                {_/_:<(:<{ %%    %%;;  ''       ",
"                {_/(([_([{ @      %% # +  $ $   ",
"                {^^_((_}({       +      @     # ",
"                {{^/(///({                   #  ",
"              {{||{{/(((/{                    $ ",
"             {1{||||{^^^{            -          ",
"            {23/{|4||{^{{,              $  **=  ",
"            {1/{|56444{65{-     @   $%      *>) ",
"             {^{||466664|{.# $  .#  %. +   %';= ",
"              {44||44|444{          %       ''  ",
"              {44{|44|4|{     +-##      +       ",
"               {66{44|4|{        #    #@       .",
"    #          {77{44|||{  #        @   @    #  ",
" .  #       {{8{779{44||{000088{{      a       .",
".           {b{ {777{///{   &${c{$  . dea  @    ",
"            {b{ {{_(({^^{    %{c{   @ %d%       ",
"  .   ##     {b{[{_(({4|4{   {c{#.%   +%       #",
"       %      {{44{{{44|45{{{c{$##%     #  #   @",
"      &        {54f4444|69{cc{  $#          +   ",
"  &   %$  {{{{{996^66666999{{   #$   #          ",
" $ &     +{99^999{{{{{{{{//{  #.            d   ",
"   %   $  {9//^{{      #{/^{  #        @  $dgd  ",
"   -      {{{{{ %     #.{//{h#     d    #  %d'  ",
"               . %  %# .{999{i #  dea       %   ",
"   #         &  #% %    {{{{{% #  %d% .   '    #",
"              &  # %      ##%#     %. @  '      ",
"             #&       #   +#  #     @    %      ",
"            #    .                     .     .  "};
