/* XPM */
static char *_29e95127b764cbcd38a8d4531cc15ffNUQssZnAvenLt6kd[] = {
/* columns rows colors chars-per-pixel */
"48 48 48 1 ",
"  c #9D443C",
". c #9E443C",
"X c #9D443E",
"o c #4F8200",
"O c #4E8300",
"+ c #4E8301",
"@ c #4D8500",
"# c #4F8400",
"$ c #508300",
"% c #7FBA44",
"& c #FAC223",
"* c #F9C325",
"= c #FAC426",
"- c #80BA42",
"; c #80BB43",
": c #81BB43",
"> c #83BA43",
", c #80B944",
"< c #82B944",
"1 c #81BA45",
"2 c #80BB45",
"3 c #83BA45",
"4 c #80B946",
"5 c #81BA47",
"6 c #80BB47",
"7 c #82BB46",
"8 c #84BB46",
"9 c #82BC44",
"0 c #81BC46",
"q c #82BB48",
"w c #9FDE5B",
"e c #A0DF5A",
"r c #A1DE5C",
"t c #A0DF5C",
"y c #A0DF5D",
"u c #9EE05C",
"i c #A1E05B",
"p c #A1E05D",
"a c #C2F278",
"s c #C1F37A",
"d c #C2F27A",
"f c #C2F47B",
"g c #C2F27C",
"h c #C2F37D",
"j c #C3F37D",
"k c #FBFF86",
"l c #FBFF87",
"z c #FDFE86",
/* pixels */
"11111111111111111%111111111111111:11111111111111",
"11q11q111111111117711111111117111111117111111111",
"111111111111111111111,11111111111111111111111111",
"111#1q1+1111111111ssi1711,111811#111111111111111",
"1111#1#11111111111%spp1,wsh111111+11$11111111111",
"1111$1#111111111%1##up1uus1q11111+1$111111111111",
"1111111q11111111111#$11py$#11171111#111111111111",
"711,1,111111111111111111$#117111q111111111111111",
"111111111111111111111111111111111111111111111111",
"1111111111711%1711111111111111111111111111ess111",
"11111111111111111111111111111111111111111ees1111",
"11111111111111111111111111111111111111111wy$$111",
"1111111111#1111111111111111111111111111111##1111",
"11111111111#:111111111111111111111111111111q1111",
"11111111111$117111111111111111111111111111111111",
"111111111171111111111111111111111111111111111111",
"1111111111111111117%11111111111,1111111111111111",
"11111111111111111111:111171ess1111111%1yss8111%1",
"11111111111111111:11111111wes1111ssp11ees1117%11",
"11111111111111111,1111111%pp##1111swy1yy$+181111",
"1111111111111111171+1111111##1111##pp11$$1111111",
"1111111111111111111#1117111q111111##171:11,1,111",
"111111111111111111111111111111111:111111q1111171",
"111111111111111111111117111111111111111111111711",
"11111111111111111111,1111111111111111111111111,1",
"111111111111111111:18111111111111111181111111111",
"111111111111111111111:1yhh11111111111111,11ssi11",
"11111111111111111ssp11eyh1811111q111,#111111swu1",
"111111111111111111spu1uy#$%71,11%711#%1:111#$pi1",
"11111111111111111$#pp11##11111111111#1111111$$11",
"111111111111111111##1111111111:877111111:1111111",
"111111111111111111118111111111111711117q1111111%",
"11117111111111117%7,7:1%711711111111q111q1111711",
"1%11711111111111,7,7,:7%1111:11:1111111z1111111%",
"%11111111111111117117:111111+,711,11%1k*z11q1111",
"1111111111111111,::1 17111111#,11111q1#k#1111111",
"11%1117711111111811X=X171%111$117%#111:#11111117",
"1111111#11111111,11$ #1%1%11111,77#111117117111q",
"111111+111111111%111#11111111111,71111111111:111",
"11+111#,1111111111,11111111111117,11171111111111",
"1,1+11111:1117%1111,11177%11117%111111111111k111",
"111#111,11111%1111111117%11111711111111q11,k&k11",
"1118111111111q11#111117%7:11X711111k1111711#k$11",
"111111111111111%1#11#71%111 = 1711k*z1111111#111",
"1117111111111+117#1#111111,$X#1711#k#1%111$11117",
"11111111111111+1171#11111177#711111#%1q11$111111",
"11111111111117+11111117111:711711111q1111#111111",
"11111111111171111%111111111111111111111%11111%11"
};
