/* XPM */
static char *af7d7f7b0c604062f98020c41ae5ca4fba02Lgr4Vm3YyvwD[] = {
/* columns rows colors chars-per-pixel */
"48 48 18 1 ",
"  c black",
". c #141413",
"X c #181817",
"o c #1E1E17",
"O c #1C1C1B",
"+ c #28261F",
"@ c #28271F",
"# c #322E1D",
"$ c #353929",
"% c #373C2C",
"& c #024829",
"* c #1D783C",
"= c #434436",
"- c #4F4C3F",
"; c #66684C",
": c #807B6A",
"> c #91BA00",
", c #979578",
/* pixels */
"                                                ",
"%%%%%%%%%%%%%%%%%%%%%%%%%%%%%%%%%%%%%%%%%%%%%%%%",
"%%%%%%%%%%%%%%%%%%%%%%%%%%%%%%%%%%%%%%%%%%%%%%%%",
"%%%%%%%%%%%%%%%%%%%%%%%%%%%%%%%%%%%%%%%%%%%%%%%%",
"%%%%%%%%%%%%%%%%%%%%%%%%%%%%%%%%%%%%%%%%%%%%%%%%",
"%%%%%%%%%%%%%%%%%%%%%%%%%%%%%%%%%%%%%%%%%%%%%%%%",
"------------------------------------------------",
"------------------------------------------------",
"---------------------%####%---------------------",
"-------------------%########--------------------",
"------------------##OO***&OO##------------------",
"-----------------##O&******&###-----------------",
"----------------%##&********O##-----------------",
"----------------##O**********O#%----------------",
"----------------##&**********&##----------------",
"----------------##**********>*##----------------",
"----------------%#*********>>*#%----------------",
"----------------##********>>>*##----------------",
"----------------%#*******>>>>*#%----------------",
"----------------%#******>>>>**#%----------------",
"----------------%#*****>>>>***#%----------------",
"----------------%#****>>>>****#%----------------",
"----------------%#***>>>>***>*#%----------------",
"----------------%#**>>>>***>>*#%----------------",
"----------------%#*>>>>***>>>*#%----:,,,,,,:=---",
"----------------%#*>>>***>>>**#%----,%..%,.,%---",
"----------------%#*>>***>>>***#%----,,,,,,,,%---",
"----------------%#*>***>>>****#%----,%,%%%,,%---",
"----------------%#****>>>*****#%----,..%,.,,%---",
"----------------%#***>>>******#%----,,,,,,,,%---",
"----------------%#&*>>>******&#%----:,,,,,,:%---",
"----------------%%#*>>******&#%;----------------",
"----------------%%%&********#%%-----------------",
"----------------;%%#&******&%%%-----------------",
"------------------;%%%####%%%;------------------",
"-------------------%%%%%%%%%;-------------------",
"--------------------;%%%%%%;--------------------",
"------------------------------------------------",
"------------------------------------------------",
"------------------------------------------------",
"                                                ",
"O OO OO OO OO OO OO OO OO OO OO OO OO OO OO OO O",
"$$$$$$$$$$@$@@$@@@@@@$$@$$$$$$$$$$$$$$$$$$$$$$@$",
"oooooXoooooooooooXXoooooooooo@@ooooooooooXoooooo",
"Xo$.oooo$.oooo$.oXo@$.oooo$.@o@o$.ooXo$.oooo$.oo",
"oX .oooX .oooX .XoXX .oXoX .o@oX .oXoX .oooX .oX",
"ooooooooooooooooXooo@@ooooooooooooXooooooooooooX",
".XXXX.XX.....X.X .    . ......XX...X.XXXX.XX...."
};
