/* XPM */
static char *c823f2d184ae44fbc4ba0d252d462912rqal2YmRCJHG8QJb[] = {
/* columns rows colors chars-per-pixel */
"48 48 45 1 ",
"  c None",
". c #550336",
"X c #6D1D3B",
"o c #6D1E3A",
"O c #6D1E3B",
"+ c #6D1F3B",
"@ c #6D1E3C",
"# c #840000",
"$ c #BE3835",
"% c #CD1910",
"& c #F1342B",
"* c #A23B61",
"= c #A23C61",
"- c #A33C61",
"; c #A33D61",
": c #D75553",
"> c #F54942",
", c #D36867",
"< c #F16962",
"1 c #F96C66",
"2 c #E87371",
"3 c #F57E7B",
"4 c #FFA076",
"5 c #EC839F",
"6 c #EB899F",
"7 c #F38EA2",
"8 c #F99BB4",
"9 c #FFACC3",
"0 c #FDCDDE",
"q c #FDCEDE",
"w c #FECEDE",
"e c #FDD9E5",
"r c #EDE3E7",
"t c #FBE6EA",
"y c #F7E9EB",
"u c #FDEBF1",
"i c #FDECF1",
"p c #F9F1F4",
"a c #FDF0F4",
"s c #FFF7FA",
"d c #FFF8FA",
"f c #FFF9FB",
"g c #FFFAFC",
"h c #FFFBFC",
"j c white",
/* pixels */
"                                                ",
"                                                ",
"                                                ",
"                                                ",
"                                                ",
"                                                ",
"                                                ",
"                                                ",
"                                                ",
"                     %%>>>%.                    ",
"                    .%%>>>%..OO                 ",
"            OOO00a..%>>1>>>%%.jj0               ",
"           O00jjjj..&>>>44>>>#jjj00             ",
"           O00jjjj..&>>>44>>>#jjj00             ",
"          @rjjdeee##&&&&>>>&&#jjjjjO            ",
"          @ajjedgjaa#%%&&&&<<#sse00=            ",
"          Oajjeggjaa#%%&&&&<<#sse00-            ",
"          O0aajaaeeea00######eeesjj*            ",
"           Oaaieejjjjjjjddeeejjjjjj-            ",
"           Oaaieejjjjjjjddeeejjjjjj-            ",
"           @00euuaaajjjaeeyjjjjjpaa-            ",
"           ;00000aaateejjjjjjdeeijj*            ",
"           ;00000aaateejjjjjjdeeagg-            ",
"           *000$$,00eiiaaajgdeggjjj;            ",
"            ==a88933,00aaateegjjjaa;            ",
"             =a88933,00aaateedjjjaa=            ",
"             ;a88955922,00eiiaaaaaaO            ",
"              0$$288955822,00aaaa00O            ",
"              0$$288955822,00aaaa00O            ",
"              0889::2999889222:::22O            ",
"              O00:889::288988899855O            ",
"               00:889::288988899855O            ",
"              jOOO::2559::2995996::O            ",
"               jjjOOO::2999::222:77O            ",
"                  jjO::2999::222:77O            ",
"                    jOOO::2998995::O            ",
"                     jjjOOO:::22:OOj            ",
"                        jjO:::22:Oj             ",
"                          jOOOOOOj              ",
"                           jjjjjj               ",
"                                                ",
"                                                ",
"                                                ",
"                                                ",
"                                                ",
"                                                ",
"                                                ",
"                                                "
};
