/* XPM */
static char *_5d5f8953e364305e6ee9b79df7395b6n0vQmLBS1dd1NwbO[] = {
/* columns rows colors chars-per-pixel */
"48 48 90 1 ",
"  c #0A0907",
". c #0D0C0A",
"X c #100F0D",
"o c #12110F",
"O c #141211",
"+ c #191515",
"@ c #1B1917",
"# c #1E1A1A",
"$ c #221A17",
"% c #231C1A",
"& c #291F1F",
"* c #27211E",
"= c #28201F",
"- c #1F2322",
"; c #212323",
": c #2C2223",
"> c #242827",
", c #252728",
"< c #25292A",
"1 c #292E2E",
"2 c #312326",
"3 c #332529",
"4 c #352A2D",
"5 c #392C2E",
"6 c #2A2F30",
"7 c #362C30",
"8 c #392E31",
"9 c #2B3131",
"0 c #343434",
"q c #3B3234",
"w c #363837",
"e c #3B3639",
"r c #363D3D",
"t c #3D3A3C",
"y c #47362E",
"u c #433533",
"i c #453A35",
"p c #4A3C34",
"a c #413B3E",
"s c #4C433D",
"d c #363F41",
"f c #3E3E41",
"g c #413D40",
"h c #374042",
"j c #3C4345",
"k c #3E4648",
"l c #3F484B",
"z c #424344",
"x c #4C4641",
"c c #4D4944",
"v c #414448",
"b c #49474B",
"n c #444B4D",
"m c #494B4D",
"M c #514B45",
"N c #4D504F",
"B c #464E50",
"V c #4A4F52",
"C c #475153",
"Z c #495254",
"A c #4A5558",
"S c #4D5A5D",
"D c #515553",
"F c #515C5D",
"G c #4E5E61",
"H c #515F62",
"J c #4F6064",
"K c #526264",
"L c #5B6465",
"P c #54666A",
"I c #5B6769",
"U c #56696C",
"Y c #596A6E",
"T c #566B70",
"R c #5A6E72",
"E c #5C7276",
"W c #5F757A",
"Q c #60686B",
"! c #637476",
"~ c #62777C",
"^ c #61797E",
"/ c #68787B",
"( c #707D7E",
") c #637D82",
"_ c #6F7E81",
"` c #707F81",
"' c #6E8284",
"] c #66858C",
"[ c #728385",
"{ c #788A8C",
/* pixels */
"^EKEY!WEERYKWHKKHHFVcFNs'EKEYEEERRRJEHHHHHFVcFNc",
"Rnt0eee00gaqtea00aaeftn5Wlt0tte00aaqttawetgejtnq",
"!w@++@@+@@@%@@#o@%@+O#niWw#+O@%+@%@$@@@o@%@+O#ks",
"Wt661661999<w66691961rK3)t911611919,w69661966hJ7",
"EvPLY^SIRYII`U_RUP[URKZuWzPLY~SURRIY`U`RUU[URHZi",
"EnsFlCRxBnCnBBnnvBnCjnC4^nsFnCYxBnCnnBBnkBnCjBZ8",
"En7%3:%02%=:3<:%$:3*::A4^n5%33*92%&:3<2+$:3&::Aq",
"!eOOOooo..OO.O..oOOX ;R4)e+ooooo..oO.+..XOOo ;Yq",
"Ef9WYRTESUJY`AS{TRHL~PC5^f9WRRTRSUGR_BS{TRHL~PZq",
"KnCCnmnlrnSnBDznBnZSnnN5PnZBvBnkrBSnBDznBnZSnnBq",
"Ungmrawntmatazjgggaaazn3Enznratntbgegfkgggaagzn8",
"Eg&O#O@#@@@@O+-@+@#%o<S4!f&O#O@###@++@-#+@#$O<S8",
"Kt,6196169<6961<66011dY5Pt>666611611666<660<9jU8",
"GjHRYRYKYYL_YRP!/U_IESn5KjHYYRYJURL_YRPR/U_QRSnq",
"HjvBnCjBBkFBBnrlBBBUcnn5KjnBBCjnVkFnBndnBBBUcnCq",
"Hn523%22%323:&%0222$B4A5Pn422*22%3:2::%0222$n4A8",
"Ke+o.. .Ooo..oOOoOX..-R4Pe+X....oOO..ooOooo..-T8",
"KzPK!PS'TRG[TTRm_TRESPZ5PvPK!PG'TRG[TTEm'TRESUAq",
"xBjSkxHnnzDABnsKnbdjGxk5cBjSjxHnBzDBBnsKnmrkSxk8",
"ZBCqgAaantngaqmgkuef4nk8DBVqgAtantBgfqbavuwt7nkq",
"Fg+%%#@+##@#@@@##@%++-S7Kf+@@##+%##@@+#%#@%++-Sq",
"xn91>>99999966666611;dY7cB01<<96619666666661;dY8",
"CARUPK[RPRRREYRRRRUURPV4DAYIKK[RPRRRRRRRRRUURPB7",
"yp5u5533243433354437753@pi5u8523334343345427753%",
")^YWE^W^~WEPWPPPKPHDcKDs]^UWE^^^^!EPWPPPKUFAcHDM",
"Ebe0ttt00gaqtet00aatftn5Wbt0ete00afqtetw0aatttB0",
"Ew@++@@@@@@%@@#O##@Oo*liWw@++@@@@@@%#@@o@%++O*ls",
"Ea911111999<w69666961hK2)t991611999<w69666991hK7",
"EzPLY~SPRYII_U'YUU(YRKAyWzYLY~SUYRII(U'YUU(YRGAi",
"EnsFnCRxCnCnnNnnkBBNjBC4^nsFlCYxCnCnnCnnjCnCjBZ8",
"En7%32%0:%*:4<:$#::*::A5^n5@22*02$=:41:$$:3=::Aq",
"!eOOooooX.oO.Oo.oOOo ;Y3)e+oooooo oo.Oo.ooOo -R7",
"Ej0RRTRESUHT(AA{URGL~PZ5~f9WRRTESUJU`AS{URGU~PZ8",
"KnCCnnnlrnSnADznBnASnnB7UmBBnnnnrnSnBDznBnVSnmVq",
"UngnraentmattzkgggggggB3RngVra0ntmttazjgggfggzB7",
"Eg=O#O@#@@@@O+-@++##O,S4Wg&O#O@#@@#@O+-@+@#@O<S8",
"Hg<6166119<1966<66016dU4Pt<1199166<9966<9<011dU8",
"SjHRYRYHYYL_YRP!/U_IRGn5KjHRYRYKYYL_URP!/U_QRHm8",
"HjnBBBjBZjFBBlrkBBBPxnB5PjvBBCjmBvFBBnrlBBBPxnVq",
"Hn5:2%32%322:&&0222$B5A5Kn722%32%323:&%0222$B4S8",
"KtOO.. .OOO..oOOoO.X.-Y5Pt+o.. .OOO..XOOoOoX.-R7",
"KzPK!KH'TRG[TRRB'TERSUA5PzPH!PG_TTG[RRRB'TRRSUA8",
"xBkSkxHnnzDBnnsJnbrkSxv5xBkSkxHnnzDBBnsHnmrjSxl7",
"VBVqgAagntngaqmfvuwt6nk8ZBVqfAagntBafqmgvuet7nkq",
"Fg+@@#@+###@@@@%##%+O*H5Hg+%@%@@#@##@@@##@%++;Sq",
"xn96<,99966199666191>dY5Mn91<<96996966669691;hY8",
"ZARYPK[RURRREURRREUURUC3AARUKK[RPERRRRRRRRPPRPB5",
"px8iqq77588887787548874%sx8iqq58587787788858804*"
};
