/* XPM */
static char *_51345d1cce04019bd6d966e2284f264uE2POgxToxfKelwi[] = {
/* columns rows colors chars-per-pixel */
"48 48 17 1 ",
"  c black",
". c #170606",
"X c #28221F",
"o c #2E221C",
"O c #3B2921",
"+ c #463124",
"@ c #383F40",
"# c #4F4C48",
"$ c #5B5952",
"% c #67625C",
"& c #79735E",
"* c #666A62",
"= c #756F64",
"- c #807B6A",
"; c #93968B",
": c #9F9F8B",
"> c #A1A9A3",
/* pixels */
"ooooOO+OO++OOOOoO+++OOOoooOoO++++OOooooOO++O+OOO",
"*%%*%$&---&--%%$$XO*%%%&&*%%%#%*%%%&-%%$$XO*%%&*",
"%%**%%%*%%&**%%%%@O%%%***%%%%%%%%%&%%%%%%@o%%%*%",
"%**%%#%%%%*%%%%%%XO%%%-%*%%%%%%%%-%%%%%%%Xo%%-%*",
"%%%%#%%%*-*%%%%=@XO%&**%*%%$%%%&*%%%%%%=@Xo%&%%*",
"%%$%%%%&*%%*%%%#@@o&%%%*%%$%%%&**%%*%%%#@@O&%%*%",
"%%#%%%%&***%%%=#@Xo-%%%%%$%$%%%%***%%%=#@Xo-%%%%",
"%#$%%%%*%%%%$#$%#@O%%%%%%#$%%#%%%%%%$#$%#@O%%%%%",
"=$%$%%%%%%%$%$%%#@o#%%%%=$%%%%*%%%%$%$%%#@O#%%%%",
"$$%%%%%%%%%$%%%%%XO$%%=##%%%%%%%%%%$%%%%%XO$%%=#",
"%##$%#%###%%%##%#XO##%@@@##%$#%###%%%##%# O####$",
"@@@XX  XXXX@@@@@XO+XXXX@X@@@XX XXXX@@@@@ O+XXXX@",
"+oooOoOoooOoOooOO++oOoOoOoOooooOoOoOoooO+++OoOO+",
"**%$+;*%-**%*o-*%%%*%%%&-#$$XO-%%%%#@%%%$#%%%%&*",
"%%%%o-%-*%%**##-%%%%%%&%%%$%X+-%&%%$#%%%%$%%%%*%",
"**%#O-%%%*%%%-;;%%%%%-%%%%%$XO-&%%%%#%%%$%%%%-%*",
"%%#%o#%%%%$%%%%%%%%&*%%%%%%$XO;%*%%%$%%%%%%%%%%*",
"%$%%o@#%$%%%%$%%%%%*%%%%%%=#@o-*%%%%%%$%%%%%%%*%",
"%%%%o#@#%$$%$%$%%%%*%%%*%%=#@o&*%%%%$#%%%%%%%%%%",
"%%$$o$%%%%$%#%%%%%%%%*%%%%##@o#%%%%$%%%%%%%%%%%%",
"%###o$%%%%%$%%%=%%%%***%%%#%@O#%-%%%$%%=$#%#%%%%",
"#$%$o#%%%%%%%%=$%%%*%*%$%#$%@O-%%%%%%%%$$%%$$%%#",
"%$%#o##%$%%%%##$@%%$%#%%%#$$XO#%##%%%%%$%%%%$$##",
"@@XXOoXX@@X@@@@XXX X@X@@@@XXo+O@X@@@@@XXX  XXXX@",
"ooooOOoOOooOoOOOoOoooOOOOoOoo++++OOoooOooo++OOOO",
"&*%%%#%*--&---*%$%$o:*%%&%%*%$%%%%=*%%*%XO+*%%&&",
"*%%%%%%*%%&***%%%$%O-%%&*%**%%%%%%*%%*%%@+O%%%**",
"*%%%%%**%%*%*%%%%%%o-%-%%**%%#%%%=%%***%XOO%%-%%",
"*%%$%%%%*-*%%%%%=#@o-%%%%%%%#%%-$$%%**%#@OO&*%%%",
"%%$%%%%%*%%*%%%%##@o-&%%*%$%%%-$%$$*%%$%@Oo*%%**",
"%$%$%%%%***%%%%%##@o$-%%%%#%%*$%$%%%%%%%@o$*%%%%",
"%#$%%#%%%%%%$$%#%$#o#%%%%#$%%%%%$%%%%%%$@o-%%%%%",
"=$%%%%%%%%%$%%$$%%#O##%%%$%$%%$%%%%%%%##@O&%%%%%",
"#%%%%%%%%%$%$$%%%%%o#$%%#$%%%%%$$%%=##$%Xo%%%%##",
"@##%$#%###%%%%%#%%#O$###$##$%#%%$$#%##$%Xo#%%$@@",
"X@@@XX  XX XX  X@XX+OXX@@@@XXX XXXX@@@@XooX@XX@@",
"OoooOoOooOOOOoOoOoO++O+O+OOOoOOOOOOOOooooOo+++O+",
"&*%%*%$o;&&%%-%%-;$$%*%$@-%%$%#+O>------**%%%*%%",
"*%%%%%%O&%%*&%%%$$%%%%%@:%%%%%#O;%-*%*%%%%%%%%%&",
"%%***%#o%&--%%%%%%$%%%-#&%%%%=#+-%%%*%%%%%%%%%-%",
"%%*%%#%o%&%%%%%%$%$%%%%%%%%%=@#O#%%%%%%%%%%%%%%%",
"%*%%$%%o&*%%%%%%%=%#$%%%%%%%##$O@#%$%%%$%%%%%&%%",
"%%%%%%%o&*%*%%%%%%%%#%%%%%%%%%%o#@#%$$$%%%%%%-%%",
"%%%%%$$o&%**%%%%=$#$%%%%%%##$%#o$%%%%#%%%%%%%%%%",
"%%%%###O&%*%*%%%$#%%%%%#%##$%%#o$%%%%%$%=%%%%#%%",
"%=##$%$O&*%*%%%%#%#%%##%%%%%%%$o#%%%%%%%$%%%#$%$",
"#%#%$%#O$%%%#%%$$@X#$####%%%%%%o##%$%%=#$$%%$%$$",
"X@@@@XX+OXX@@@XX XX XXX@@@.@XX ooXX@X@@@X@X XXX@"
};
